<svg data-v-0dd9719b="" version="1.0" xmlns="http://www.w3.org/2000/svg" xmlns:xlink="http://www.w3.org/1999/xlink" width="100%" height="100%" viewBox="0 0 340.000000 250.000000" preserveAspectRatio="xMidYMid meet" color-interpolation-filters="sRGB" style="margin: auto;"> <rect data-v-0dd9719b="" x="0" y="0" width="100%" height="100%" fill="#fff" fill-opacity="1" class="background"></rect> <rect data-v-0dd9719b="" x="0" y="0" width="100%" height="100%" fill="url(#watermark)" fill-opacity="1" class="watermarklayer"></rect> <g data-v-0dd9719b="" fill="#333" class="icon-text-wrapper icon-svg-group iconsvg" transform="translate(48.100006103515625,94.96395683288574)"><g class="iconsvg-imagesvg" transform="translate(0,0)"><g><rect fill="#333" fill-opacity="0" stroke-width="2" x="0" y="0" width="60" height="60.07208650380456" class="image-rect"></rect> <svg x="0" y="0" width="60" height="60.07208650380456" filtersec="colorsb5494620410" class="image-svg-svg primary" style="overflow: visible;"><svg xmlns="http://www.w3.org/2000/svg" viewBox="0 -0.00001430726933904225 99.8800048828125 100.00004577636719"><g fill-rule="evenodd"><path d="M10.85 81.18L46.64 87V76.88l-40.3-2.39a49.59 49.59 0 0 0 4.51 6.69zM51.52 100v-8.74l-37.47-6.45A49.85 49.85 0 0 0 49.94 100h1.58zM1.57 62.7l63.7 1.11v10L3.15 67.68a48.89 48.89 0 0 1-1.58-5zM.49 57.48l56.82 3.27V50.54L0 52.53c.08 1.67.25 3.32.49 4.95zM0 47.19L44.45 49V38.39l-43.94 4C.27 44 .11 45.58 0 47.19zM1.62 37.09l32.83-1.35v-10l-30.66 5a49 49 0 0 0-2.17 6.35zM6.32 25.55l35.4-3.08V11.64l-30 6.12a49.44 49.44 0 0 0-5.41 7.79zM49.63 0v9.2L15.26 14A49.84 49.84 0 0 1 49.63 0z" fill="#2491eb"></path><path d="M90 80l-43.36 7V76.88l47.12-2.8A50.6 50.6 0 0 1 90 80zM51.52 100v-8.74l34.33-6.48A49.82 49.82 0 0 1 51.52 100zM96.25 68.86l-31 5v-10l33-1.08a49 49 0 0 1-2 6.13zM99.42 57.18l-42.11 3.57V50.54l42.57 1.71c-.07 1.66-.23 3.31-.46 4.93zM99.88 47.67L44.45 49V38.39l54.81 3.38a49.74 49.74 0 0 1 .62 5.9zM98.19 36.88l-63.74-1.14v-10l62 5.95a48.69 48.69 0 0 1 1.72 5.2zM93.78 26l-52.06-3.53V11.64l47.39 7.29a50.45 50.45 0 0 1 4.67 7zM49.63 0v9.2l35.18 5A49.82 49.82 0 0 0 49.94 0z" fill="#145593"></path></g></svg></svg> <!----></g></g> <g transform="translate(67,1.6347923278808594)"><g data-gra="path-name" fill-rule="" class="tp-name iconsvg-namesvg" transform="translate(0,0)"><g transform="scale(1)"><g><path d="M42.75 4.63L42.75-1.57C33.7-3.51 28.35-8.46 26.55-15.34L42.84-15.34 42.84-21.02 15.03-21.02 15.03-36.9 9.18-36.9 9.18-21.02 1.71-21.02 1.71-15.34 9.18-15.34 9.18 4.5 20.25 4.5 20.25-1.26 15.03-1.26 15.03-15.34 20.38-15.34C23.4-4.05 30.51 2.34 42.75 4.63ZM17.59-23.76C24.93-25.15 31.63-27.27 38.38-30.24L38.38-36.45C31.5-33.21 24.79-31 17.59-29.65ZM58.05-0.77L58.05 4.95C75.83 3.46 84.33-4.37 86.49-15.39L80.59-15.39C78.7-6.88 70.38-1.8 58.05-0.77ZM46.84 4.5L53.41 4.5C55.53-0.81 57.06-7.2 58-14.67L51.98-14.67C51.16-8.32 49.45-1.93 46.84 4.5ZM47.25-19.3L58-16.74 58-22.77 47.25-25.43ZM48.15-29.88L57.91-27.36 57.91-33.48 48.15-36ZM58.63-13.86L64.98-13.86C66.96-20.7 67.91-27.45 67.91-34.78L62.33-34.78C62.33-27.54 61.11-20.79 58.63-13.86ZM71.33-12.29L76.91-12.29 76.91-36.45 71.33-36.45ZM79.52-34.83C81.36-28.62 82.31-22.59 82.44-16.16L87.84-16.16C87.8-22.63 86.98-28.66 85.37-34.83ZM126.54 4.5L132.12 4.5 132.16-35.23 112.05-35.23 112.05-29.65 126.54-29.65ZM91.62 4.5L97.88 4.5C99.86-1.35 101.07-7.88 101.79-14.67L96.03-14.67C95.31-7.96 93.83-1.71 91.62 4.5ZM92.2-19.17L101.88-16.61 101.88-22.63 92.2-25.29ZM93.06-29.88L101.79-27.36 101.79-33.48 93.06-36ZM103.09-36.45L105.44-28.08 110.97-28.08 108.63-36.45ZM103.23 4.5L108.81 4.5 108.81-26.46 103.23-26.46ZM109.8 0L125.55 0 125.55-5.4 120.38-5.4 120.38-10.53 124.56-10.53 124.56-15.66 120.38-15.66 120.38-20.43 125.55-20.43 125.55-25.83 109.8-25.83 109.8-20.43 114.97-20.43 114.97-15.66 110.79-15.66 110.79-10.53 114.97-10.53 114.97-5.4 109.8-5.4ZM151.47 4.5L161.69 4.5 161.69-12.38 175.41-12.38 175.41-18 161.69-18 161.69-24.61 155.84-24.61 155.84-18 148.23-18 152.19-27.22 176.81-27.22 176.81-32.94 154.66-32.94 156.19-36.54 149.49-36.54 147.96-32.94 138.19-32.94 138.19-27.22 145.49-27.22 141.53-18 138.69-18 138.69-12.38 155.84-12.38 155.84-1.26 151.47-1.26ZM136.49 3.42L143.28 3.42C145.35-0.58 147.19-4.91 148.68-9.72L142.43-9.72C140.94-5.13 138.91-0.85 136.49 3.42ZM166.32-9.72C167.81-4.91 169.65-0.58 171.72 3.42L178.51 3.42C176.09-0.85 174.06-5.13 172.57-9.72Z" transform="translate(-1.7100000381469727, 36.900001525878906)"></path></g> <!----> <!----> <!----> <!----> <!----> <!----> <!----></g></g> <g data-gra="path-slogan" fill-rule="" class="tp-slogan iconsvg-slogansvg" fill="#333" transform="translate(5,47.85000228881836)"><rect x="0" height="1" y="3.9750003814697266" width="14.68499755859375"></rect> <rect height="1" y="3.9750003814697266" width="14.68499755859375" x="152.114990234375"></rect> <g transform="translate(17.68499755859375,0)"><g transform="scale(1)"><path d="M8.06-6.05L8.06-6.05L6.94-6.05Q6.52-7.78 4.55-7.83L4.55-7.83Q1.83-7.69 1.73-4.36L1.73-4.36Q1.73-0.80 4.59-0.80L4.59-0.80Q6.56-0.84 7.03-3.19L7.03-3.19L8.16-3.19Q7.64 0.05 4.36 0.14L4.36 0.14Q0.61 0 0.52-4.31L0.52-4.31Q0.70-8.63 4.55-8.81L4.55-8.81Q7.59-8.72 8.06-6.05ZM10.69-5.06L15.19-5.06L15.19-8.58L16.36-8.58L16.36 0L15.19 0L15.19-3.98L10.69-3.98L10.69 0L9.52 0L9.52-8.58L10.69-8.58L10.69-5.06ZM23.81 0L22.97-2.48L19.50-2.48L18.61 0L17.44 0L20.67-8.58L21.98-8.58L25.08 0L23.81 0ZM21.23-7.31L19.88-3.52L22.55-3.52L21.28-7.31L21.23-7.31ZM27.52-8.58L31.83-1.64L31.83-8.58L32.95-8.58L32.95 0L31.64 0L27.28-6.94L27.23-6.94L27.23 0L26.11 0L26.11-8.58L27.52-8.58ZM41.16-3.61L38.53-3.61L38.53-4.59L42.28-4.59L42.28 0L41.53 0L41.25-1.08Q40.27 0.09 38.44 0.14L38.44 0.14Q36.70 0.14 35.77-0.75L35.77-0.75Q34.36-2.06 34.41-4.36L34.41-4.36Q34.73-8.63 38.48-8.81L38.48-8.81Q41.67-8.63 42.14-6L42.14-6L41.02-6Q40.55-7.78 38.44-7.83L38.44-7.83Q35.77-7.64 35.63-4.31L35.63-4.31Q35.63-0.75 38.48-0.75L38.48-0.75Q39.52-0.75 40.27-1.31L40.27-1.31Q41.20-2.06 41.16-3.61L41.16-3.61ZM50.34-6.09L50.34-6.09L49.27-6.09Q49.17-7.73 47.11-7.83L47.11-7.83Q45.19-7.78 45.19-6.33L45.19-6.33Q45.19-5.39 46.22-5.25L46.22-5.25L48.66-4.69Q50.58-4.22 50.58-2.34L50.58-2.34Q50.53 0.05 47.20 0.14L47.20 0.14Q45.38 0.14 44.63-0.61L44.63-0.61Q43.69-1.31 43.73-2.77L43.73-2.77L44.86-2.77Q44.91-0.80 47.20-0.75L47.20-0.75Q49.45-0.80 49.50-2.20L49.50-2.20Q49.69-3.38 47.63-3.75L47.63-3.75L45.84-4.13Q44.02-4.64 44.02-6.19L44.02-6.19Q44.16-8.72 47.02-8.81L47.02-8.81Q50.25-8.81 50.34-6.09ZM53.20-5.06L57.70-5.06L57.70-8.58L58.88-8.58L58.88 0L57.70 0L57.70-3.98L53.20-3.98L53.20 0L52.03 0L52.03-8.58L53.20-8.58L53.20-5.06ZM66.33 0L65.48-2.48L62.02-2.48L61.13 0L59.95 0L63.19-8.58L64.50-8.58L67.59 0L66.33 0ZM63.75-7.31L62.39-3.52L65.06-3.52L63.80-7.31L63.75-7.31ZM76.08-3.70L73.27-3.70L73.27 0L72.09 0L72.09-8.58L76.08-8.58Q78.94-8.58 78.94-6.28L78.94-6.28Q78.94-4.88 77.72-4.22L77.72-4.22Q78.75-3.94 78.75-2.58L78.75-2.58L78.84-1.03Q78.80-0.38 79.27-0.19L79.27-0.19L79.27 0L77.81 0Q77.67-0.61 77.63-2.16L77.63-2.16Q77.67-3.70 76.08-3.70L76.08-3.70ZM76.17-7.64L73.27-7.64L73.27-4.69L75.98-4.69Q77.72-4.69 77.72-6.19L77.72-6.19Q77.72-7.64 76.17-7.64L76.17-7.64ZM86.25-3.19L86.25-8.58L87.42-8.58L87.42-3.05Q87.28 0.05 83.91 0.14L83.91 0.14Q80.77 0.05 80.63-2.86L80.63-2.86L80.63-8.58L81.80-8.58L81.80-3.19Q81.84-0.84 83.95-0.80L83.95-0.80Q86.25-0.84 86.25-3.19L86.25-3.19ZM90.61-8.58L94.92-1.64L94.92-8.58L96.05-8.58L96.05 0L94.73 0L90.38-6.94L90.33-6.94L90.33 0L89.20 0L89.20-8.58L90.61-8.58ZM101.34 0L97.88 0L97.88-8.58L101.39-8.58Q104.86-8.39 105-4.41L105-4.41Q104.81-0.09 101.34 0L101.34 0ZM101.20-7.64L99.05-7.64L99.05-0.98L101.30-0.98Q103.73-1.13 103.83-4.31L103.83-4.31Q103.78-7.55 101.20-7.64L101.20-7.64ZM113.25-4.27L113.25-4.27Q113.06-7.64 110.25-7.83L110.25-7.83Q107.39-7.69 107.25-4.27L107.25-4.27Q107.39-0.94 110.25-0.80L110.25-0.80Q113.06-0.98 113.25-4.27ZM114.42-4.27L114.42-4.27Q114.14 0 110.25 0.14L110.25 0.14Q106.31 0 106.03-4.27L106.03-4.27Q106.27-8.72 110.25-8.81L110.25-8.81Q114.14-8.67 114.42-4.27ZM117.19-8.58L121.50-1.64L121.50-8.58L122.63-8.58L122.63 0L121.31 0L116.95-6.94L116.91-6.94L116.91 0L115.78 0L115.78-8.58L117.19-8.58ZM130.83-3.61L128.20-3.61L128.20-4.59L131.95-4.59L131.95 0L131.20 0L130.92-1.08Q129.94 0.09 128.11 0.14L128.11 0.14Q126.38 0.14 125.44-0.75L125.44-0.75Q124.03-2.06 124.08-4.36L124.08-4.36Q124.41-8.63 128.16-8.81L128.16-8.81Q131.34-8.63 131.81-6L131.81-6L130.69-6Q130.22-7.78 128.11-7.83L128.11-7.83Q125.44-7.64 125.30-4.31L125.30-4.31Q125.30-0.75 128.16-0.75L128.16-0.75Q129.19-0.75 129.94-1.31L129.94-1.31Q130.88-2.06 130.83-3.61L130.83-3.61Z" transform="translate(-0.515625, 8.8125)"></path></g></g></g></g></g><defs v-gra="od"></defs></svg>